<?xml version="1.0" encoding="utf-8"?>
<!-- Generator: Adobe Illustrator 19.2.1, SVG Export Plug-In . SVG Version: 6.00 Build 0)  -->
<svg version="1.1" id="Layer_1" xmlns="http://www.w3.org/2000/svg" xmlns:xlink="http://www.w3.org/1999/xlink" x="0px" y="0px"
	 viewBox="0 0 135.802 150" style="enable-background:new 0 0 135.802 150;" xml:space="preserve">
<style type="text/css">
	.st0{fill:#895734;}
	.st1{fill:#FFFFFF;}
	.st2{fill:#CBDEAE;}
	.st3{fill:#869A42;}
	.st4{fill:#6D6E71;}
	.st5{fill:#B6B8BA;}
	.st6{fill:#414042;}
	.st7{fill:#C6C5C6;}
	.st8{fill:#333233;}
	.st9{fill:#D7AC79;}
	.st10{fill:#FFD425;}
	.st11{fill:#C18049;}
	.st12{fill:#C39A61;}
	.st13{fill:#FFBB28;}
	.st14{fill:#B16F3B;}
	.st15{fill:#474A4C;}
	.st16{fill:#E0E1E2;}
	.st17{fill:#CED0D1;}
	.st18{fill:#6DD093;}
	.st19{fill:#73D9FF;}
	.st20{fill:#B3A092;}
	.st21{fill:#73747A;}
	.st22{fill:#E58B7E;}
	.st23{fill:#A3D3E3;}
	.st24{fill:#EDC98B;}
	.st25{fill:#C2E0BB;}
	.st26{fill:#F1B2AD;}
	.st27{fill:#EDB86E;}
	.st28{fill:#F1999C;}
	.st29{fill:#9F755A;}
	.st30{fill:#D8A899;}
	.st31{fill:#F5AA40;}
	.st32{fill:#C88F7B;}
	.st33{fill:#EBECEC;}
	.st34{fill:#F19C1A;}
	.st35{fill:#594A42;}
	.st36{fill:#84949D;}
	.st37{fill:#CBCDCE;}
	.st38{fill:#B4CDFF;}
	.st39{fill:#9CCCA1;}
	.st40{fill:#86BB8B;}
	.st41{fill:#99B5E8;}
	.st42{fill:#4A5F68;}
	.st43{fill:#FFB455;}
	.st44{fill:#E99443;}
	.st45{fill:#FFC75D;}
	.st46{fill:#F12C23;}
	.st47{fill:#8E1E1A;}
	.st48{opacity:0.4;}
	.st49{fill:none;}
	.st50{fill:#BCD6FF;}
	.st51{fill:#475CCA;}
	.st52{fill:#958079;}
	.st53{fill:#D0945B;}
	.st54{fill:#7C6A64;}
	.st55{fill:#B3804D;}
	.st56{fill:#5E3D56;}
	.st57{fill:#4A4A4B;}
	.st58{fill:#FFBD56;}
	.st59{opacity:0.7;fill:#FFB13C;}
	.st60{fill:#312E32;}
	.st61{fill:#DFA74D;}
	.st62{fill:#F2F2F2;}
	.st63{fill:#2B4980;}
	.st64{fill:#4B5974;}
	.st65{fill:#647597;}
	.st66{fill:#A1DB93;}
	.st67{fill:#FFE98C;}
	.st68{fill:#393C5D;}
	.st69{fill:#73DEDF;}
	.st70{fill:#3CC9D1;}
	.st71{fill:#91E7E9;}
	.st72{fill:#231F3A;}
	.st73{fill:#739EAD;}
	.st74{fill:#A9BB83;}
	.st75{fill:#92AD6D;}
	.st76{fill:#6083A0;}
	.st77{fill:#FAA969;}
	.st78{fill:#E6965F;}
	.st79{fill:#F4909D;}
	.st80{fill:#E07A86;}
	.st81{fill:#344072;}
	.st82{fill:#BEE077;}
	.st83{fill:#9FC168;}
	.st84{fill:#84A64E;}
	.st85{fill:#8F7F6E;}
	.st86{fill:#75695A;}
	.st87{fill:#4F5942;}
	.st88{fill:#F5E9B4;}
	.st89{fill:#E75C54;}
	.st90{fill:#F3D18C;}
	.st91{fill:#B81E2D;}
	.st92{fill:#C2A161;}
	.st93{fill:#E0D0B0;}
	.st94{fill:#D7BE7C;}
	.st95{fill:#D6AA60;}
	.st96{fill:#CB4B3A;}
	.st97{fill:#A2181F;}
	.st98{fill:#AB8343;}
	.st99{fill:#FF9598;}
	.st100{fill:#DDC2C1;}
	.st101{fill:#5C1825;}
	.st102{fill:#FFE1C7;}
	.st103{fill:#FFEFE0;}
	.st104{fill:#E8C59E;}
	.st105{fill:#BCAF95;}
	.st106{fill:#A89D85;}
	.st107{fill:#998F79;}
	.st108{fill:#C7B99E;}
	.st109{fill:#F4C46D;}
	.st110{fill:#F4B23B;}
	.st111{fill:#8A755F;}
	.st112{fill:#70CF89;}
	.st113{fill:#1CC7C7;}
	.st114{fill:#148A8A;}
	.st115{fill:#B07A2E;}
	.st116{fill:#595A5C;}
	.st117{fill:#73635E;}
	.st118{fill:#4C8C5D;}
	.st119{fill:#4C4148;}
	.st120{fill:#F6B139;}
	.st121{fill:#F69139;}
	.st122{fill:#86AD53;}
	.st123{fill:#6A8C3B;}
	.st124{fill:#61503A;}
	.st125{fill:#FFD336;}
	.st126{fill:#FF8321;}
	.st127{fill:#FFDF6B;}
	.st128{fill:#FFA359;}
	.st129{fill:#F0BC00;}
	.st130{fill:#E36F12;}
	.st131{fill:#E8E8E8;}
	.st132{fill:#9A4F1E;}
	.st133{fill:#9980BA;}
	.st134{fill:#E5E6E6;}
	.st135{fill:#7B7180;}
	.st136{fill:#4FAEC2;}
	.st137{fill:#DB7EA9;}
	.st138{fill:#9E7C49;}
	.st139{fill:#694A2F;}
	.st140{fill:#C7A571;}
	.st141{fill:#39CA4A;}
	.st142{fill:#EEC770;}
	.st143{fill:#C9A24C;}
	.st144{fill:#D68D24;}
	.st145{fill:#18A127;}
	.st146{fill:#4D4A53;}
</style>
<g>
	<g>
		<path class="st141" d="M117.376,139.379c0.98,3.78-1.48,7.43-5.06,8.4c-2.52-22.14-21.53-39.36-44.61-39.37
			c-23.1-0.01-42.13,17.2-44.66,39.35c-3.73-1.02-6.15-4.95-4.94-8.84c0.02-0.04,0.03-0.07,0.04-0.11c0.66-2.05,2.03-3.7,3.73-4.76
			c0.38-0.24,0.59-0.67,0.53-1.11c-0.27-2,0.14-4.1,1.3-5.93c1.17-1.84,2.9-3.1,4.82-3.7c0.42-0.13,0.73-0.5,0.77-0.93
			c0.21-1.76,0.95-3.46,2.2-4.86c0.17-0.19,0.35-0.38,0.54-0.56c1.61-1.51,3.63-2.3,5.73-2.38c0.38-0.03,0.73-0.24,0.91-0.58
			c0.66-1.17,2.28-3.81,3.93-4.71c1.9-1.04,4.03-1.31,6-0.92c0.44,0.09,0.88-0.09,1.15-0.46c1.16-1.63,2.89-2.88,4.99-3.42
			c2.11-0.53,4.22-0.27,6.03,0.6c0.41,0.2,0.89,0.14,1.24-0.15c1.54-1.3,3.52-2.08,5.69-2.07c2.17,0,4.15,0.77,5.69,2.07
			c0.35,0.29,0.83,0.36,1.24,0.16c1.81-0.87,3.93-1.13,6.02-0.59c2.1,0.54,3.83,1.79,5,3.42c0.26,0.37,0.7,0.55,1.14,0.46
			c1.98-0.39,4.1-0.12,6,0.93c1.9,1.04,3.26,2.68,3.99,4.56c0.16,0.41,0.54,0.71,0.99,0.73c2.01,0.1,4,0.9,5.58,2.38
			c0.2,0.19,0.39,0.38,0.56,0.58c1.25,1.4,1.97,3.09,2.17,4.85c0.05,0.43,0.36,0.8,0.77,0.93c1.93,0.61,3.65,1.87,4.82,3.71
			c1.16,1.83,1.57,3.93,1.29,5.92c-0.06,0.44,0.16,0.88,0.53,1.11c1.71,1.07,3.07,2.71,3.73,4.78
			C117.286,139.039,117.336,139.209,117.376,139.379z"/>
	</g>
	<g>
		<path class="st142" d="M112.316,147.779c-0.6,0.16-1.22,0.25-1.87,0.25l-85.52-0.02c-0.66,0-1.29-0.09-1.88-0.25
			c2.53-22.15,21.56-39.36,44.66-39.35C90.786,108.419,109.796,125.639,112.316,147.779z"/>
	</g>
	<g>
		<path class="st31" d="M106.746,103.999c0,4.56-0.78,8.93-2.22,13l-0.61,0.57c-0.17-0.2-0.36-0.39-0.56-0.58
			c-1.58-1.48-3.57-2.28-5.58-2.38c-0.45-0.02-0.83-0.32-0.99-0.73c-0.73-1.88-2.09-3.52-3.99-4.56c-1.9-1.05-4.02-1.32-6-0.93
			c-0.44,0.09-0.88-0.09-1.14-0.46c-1.17-1.63-2.9-2.88-5-3.42c-2.09-0.54-4.21-0.28-6.02,0.59c-0.41,0.2-0.89,0.13-1.24-0.16
			c-1.54-1.3-3.52-2.07-5.69-2.07c-2.17-0.01-4.15,0.77-5.69,2.07c-0.35,0.29-0.83,0.35-1.24,0.15c-1.81-0.87-3.92-1.13-6.03-0.6
			c-2.1,0.54-3.83,1.79-4.99,3.42c-0.27,0.37-0.71,0.55-1.15,0.46c-1.97-0.39-4.1-0.12-6,0.92c-1.65,0.9-3.27,3.54-3.93,4.71
			c-0.18,0.34-0.53,0.55-0.91,0.58c-2.1,0.08-4.12,0.87-5.73,2.38c-0.19,0.18-0.37,0.37-0.54,0.56l-0.53-0.52
			c-1.44-4.07-2.22-8.44-2.22-13c0-21.54,17.46-39,39-39S106.746,82.459,106.746,103.999z"/>
	</g>
	<g>
		<path class="st143" d="M39.938,148.009c-0.66,0-1.29-0.09-1.88-0.25c2.249-19.689,17.539-35.463,37.132-38.721
			c-2.435-0.405-4.932-0.628-7.484-0.629c-23.1-0.01-42.13,17.2-44.66,39.35c0.59,0.16,1.22,0.25,1.88,0.25l85.52,0.02
			c0.018,0,0.034-0.003,0.051-0.003L39.938,148.009z"/>
	</g>
	<g>
		<g>
			<path class="st144" d="M43.758,103.999c0-18.972,13.547-34.771,31.494-38.271c-2.43-0.474-4.938-0.729-7.506-0.729
				c-21.54,0-39,17.46-39,39c0,4.56,0.78,8.93,2.22,13l0.53,0.52c0.17-0.19,0.35-0.38,0.54-0.56c1.61-1.51,3.63-2.3,5.73-2.38
				c0.38-0.03,0.73-0.24,0.91-0.58c0.66-1.17,2.28-3.81,3.93-4.71c0.466-0.255,0.946-0.462,1.434-0.627
				C43.858,107.133,43.758,105.579,43.758,103.999z"/>
		</g>
		<g>
			<path class="st144" d="M72.424,104.236c0.339,0.215,0.666,0.445,0.972,0.703c0.35,0.29,0.83,0.36,1.24,0.16
				c0.192-0.092,0.389-0.174,0.588-0.252C74.34,104.495,73.396,104.287,72.424,104.236z"/>
		</g>
	</g>
	<g>
		<g>
			<path class="st145" d="M53.021,110.832c0.553-0.643,1.156-1.212,1.763-1.543c1.9-1.04,4.03-1.31,6-0.92
				c0.44,0.09,0.88-0.09,1.15-0.46c1.16-1.63,2.89-2.88,4.99-3.42c2.11-0.53,4.22-0.27,6.03,0.6c0.268,0.131,0.563,0.14,0.835,0.057
				c-0.14-0.046-0.276-0.109-0.394-0.207c-1.54-1.3-3.52-2.07-5.69-2.07c-2.17-0.01-4.15,0.77-5.69,2.07
				c-0.35,0.29-0.83,0.35-1.24,0.15c-1.81-0.87-3.92-1.13-6.03-0.6c-2.1,0.54-3.83,1.79-4.99,3.42c-0.27,0.37-0.71,0.55-1.15,0.46
				c-1.97-0.39-4.1-0.12-6,0.92c-1.65,0.9-3.27,3.54-3.93,4.71c-0.18,0.34-0.53,0.55-0.91,0.58c-2.1,0.08-4.12,0.87-5.73,2.38
				c-0.19,0.18-0.37,0.37-0.54,0.56c-1.25,1.4-1.99,3.1-2.2,4.86c-0.04,0.43-0.35,0.8-0.77,0.93c-1.92,0.6-3.65,1.86-4.82,3.7
				c-1.16,1.83-1.57,3.93-1.3,5.93c0.06,0.44-0.15,0.87-0.53,1.11c-1.7,1.06-3.07,2.71-3.73,4.76c-0.01,0.04-0.02,0.07-0.04,0.11
				c-1.21,3.89,1.21,7.82,4.94,8.84C25.013,130.541,36.952,116.312,53.021,110.832z"/>
		</g>
	</g>
	<g>
		<path class="st146" d="M119.131,138.262c-0.717-2.249-2.169-4.207-4.12-5.568c0.202-2.338-0.374-4.699-1.647-6.708
			c-1.272-2.001-3.164-3.532-5.369-4.359c-0.243-1.452-0.781-2.816-1.561-4.028c1.533-4.359,2.312-8.932,2.312-13.599
			c0-22.607-18.393-41-41-41s-41,18.393-41,41c0,4.626,0.767,9.159,2.272,13.481c-0.811,1.235-1.365,2.617-1.625,4.102
			c-2.207,0.82-4.102,2.351-5.377,4.355c-1.269,2.002-1.847,4.365-1.653,6.713c-1.925,1.338-3.369,3.263-4.099,5.477l-0.069,0.198
			c-0.722,2.321-0.474,4.777,0.698,6.917c1.191,2.174,3.241,3.794,5.625,4.446h0.003c0.782,0.213,1.591,0.32,2.404,0.32l85.52,0.021
			c0.789,0,1.591-0.106,2.394-0.319c4.781-1.297,7.685-6.156,6.483-10.79C119.266,138.68,119.195,138.439,119.131,138.262z
			 M67.746,66.999c20.402,0,37,16.598,37,37c0,3.544-0.503,7.026-1.485,10.384c-1.443-0.95-3.094-1.547-4.82-1.727
			c-0.966-2.162-2.612-3.956-4.679-5.088c-2.062-1.14-4.456-1.571-6.806-1.233c-1.47-1.846-3.511-3.173-5.801-3.762
			c-2.289-0.59-4.712-0.413-6.891,0.501c-1.873-1.425-4.181-2.204-6.55-2.204c-2.396-0.008-4.687,0.77-6.562,2.197
			c-2.164-0.91-4.593-1.096-6.905-0.514c-2.304,0.592-4.348,1.925-5.796,3.762c-2.329-0.343-4.731,0.084-6.804,1.219
			c-1.789,0.976-3.375,3.194-4.48,5.079c-1.802,0.151-3.481,0.727-4.962,1.687c-0.965-3.33-1.46-6.784-1.46-10.3
			C30.746,83.597,47.344,66.999,67.746,66.999z M67.685,110.41c0.007,0,0.014,0,0.021,0c21.184,0.009,39.046,15.186,42.351,35.62
			l-84.749-0.02C28.621,125.574,46.492,110.41,67.685,110.41z M40.349,115.078c0.02-0.034,0.05-0.061,0.069-0.097
			c1.1-1.949,2.334-3.494,3.147-3.938c1.414-0.774,3.065-1.03,4.641-0.715c0.143,0.029,0.285,0.046,0.427,0.056
			C45.702,111.67,42.932,113.25,40.349,115.078z M51.12,109.385c0.093-0.099,0.182-0.202,0.265-0.315
			c0.928-1.303,2.298-2.242,3.849-2.641c1.597-0.401,3.212-0.24,4.665,0.457c0.099,0.048,0.201,0.084,0.303,0.122
			C57.064,107.504,54.025,108.304,51.12,109.385z M63.071,106.635c0.079-0.054,0.16-0.105,0.234-0.167
			c1.239-1.046,2.744-1.598,4.365-1.598c0.012,0,0.023,0,0.035,0c1.64,0,3.161,0.553,4.415,1.61c0.072,0.059,0.149,0.108,0.225,0.16
			c-1.528-0.149-3.074-0.23-4.639-0.23c-0.009,0-0.014,0-0.022,0C66.129,106.41,64.591,106.488,63.071,106.635z M75.217,107.016
			c0.096-0.035,0.192-0.069,0.285-0.114c1.448-0.695,3.099-0.857,4.656-0.456c1.559,0.401,2.935,1.343,3.861,2.633
			c0.08,0.114,0.168,0.218,0.26,0.319C81.381,108.316,78.348,107.515,75.217,107.016z M86.773,110.404
			c0.137-0.009,0.273-0.025,0.41-0.053c1.591-0.312,3.242-0.058,4.652,0.722c1.426,0.78,2.492,2.001,3.087,3.53
			c0.093,0.241,0.22,0.461,0.363,0.666C92.639,113.368,89.79,111.73,86.773,110.404z M20.401,143.321
			c-0.631-1.151-0.776-2.468-0.414-3.716c0.029-0.073,0.054-0.148,0.076-0.227c0.493-1.496,1.512-2.785,2.882-3.639
			c1.04-0.658,1.606-1.862,1.443-3.068c-0.216-1.596,0.142-3.227,1.005-4.589c0.869-1.367,2.193-2.385,3.723-2.862
			c1.203-0.373,2.056-1.415,2.166-2.604c0.167-1.4,0.757-2.702,1.703-3.763c0.133-0.148,0.273-0.299,0.419-0.436
			c1.215-1.14,2.749-1.776,4.521-1.845c0.199-0.016,0.386-0.068,0.574-0.118c-8.74,6.854-14.967,16.747-17.009,28.204
			C21.062,144.273,20.682,143.833,20.401,143.321z M113.878,144.705c-2.034-11.478-8.268-21.39-17.021-28.254
			c0.262,0.087,0.536,0.142,0.819,0.155c1.598,0.08,3.129,0.734,4.305,1.837c0.147,0.139,0.289,0.277,0.443,0.458
			c0.937,1.049,1.516,2.344,1.676,3.749c0.141,1.214,0.985,2.236,2.153,2.606c1.561,0.493,2.853,1.488,3.733,2.874
			c0.867,1.366,1.222,2.989,0.997,4.581c-0.164,1.216,0.407,2.423,1.451,3.073c1.396,0.874,2.394,2.15,2.907,3.756
			c0.035,0.1,0.064,0.198,0.098,0.341C115.905,141.675,115.228,143.508,113.878,144.705z"/>
		<path class="st146" d="M67.796,56.999c1.104,0,2-0.896,2-2v-20c0-1.104-0.896-2-2-2s-2,0.896-2,2v20
			C65.796,56.104,66.691,56.999,67.796,56.999z"/>
		<path class="st146" d="M37.367,65.535c0.392,0.539,1.001,0.825,1.62,0.825c0.407,0,0.818-0.124,1.173-0.382
			c0.895-0.649,1.093-1.899,0.443-2.793l-11.75-16.18c-0.649-0.893-1.899-1.092-2.793-0.443c-0.895,0.649-1.093,1.899-0.443,2.793
			L37.367,65.535z"/>
		<path class="st146" d="M1.178,84.461l19.39,6.3c0.205,0.066,0.414,0.099,0.618,0.099c0.844,0,1.628-0.538,1.902-1.383
			c0.341-1.051-0.233-2.179-1.284-2.521l-19.39-6.3c-1.055-0.341-2.179,0.235-2.521,1.284C-0.447,82.992,0.127,84.119,1.178,84.461z
			"/>
		<path class="st146" d="M23.088,118.521c-0.341-1.049-1.468-1.626-2.521-1.284l-19.02,6.18c-1.051,0.342-1.625,1.47-1.284,2.521
			c0.274,0.845,1.059,1.383,1.902,1.383c0.204,0,0.413-0.032,0.618-0.099l19.02-6.18C22.854,120.7,23.429,119.572,23.088,118.521z"
			/>
		<path class="st146" d="M134.034,123.416l-19.021-6.18c-1.053-0.342-2.18,0.235-2.521,1.284c-0.341,1.051,0.233,2.179,1.284,2.521
			l19.021,6.18c0.205,0.066,0.414,0.099,0.618,0.099c0.844,0,1.628-0.538,1.902-1.383
			C135.659,124.886,135.085,123.758,134.034,123.416z"/>
		<path class="st146" d="M112.493,89.477c0.275,0.846,1.059,1.383,1.902,1.383c0.204,0,0.413-0.032,0.618-0.099l19.28-6.27
			c1.051-0.342,1.625-1.471,1.284-2.521c-0.342-1.05-1.467-1.625-2.521-1.284l-19.28,6.27
			C112.727,87.298,112.152,88.427,112.493,89.477z"/>
		<path class="st146" d="M95.421,65.977c0.354,0.258,0.766,0.382,1.173,0.382c0.619,0,1.229-0.286,1.62-0.825l11.75-16.18
			c0.649-0.894,0.451-2.145-0.443-2.793c-0.893-0.649-2.143-0.449-2.793,0.443l-11.75,16.18
			C94.328,64.078,94.526,65.328,95.421,65.977z"/>
		<path class="st146" d="M18.796,101.999H9.775c-1.104,0-2,0.896-2,2s0.896,2,2,2h9.021c1.104,0,2-0.896,2-2
			S19.9,101.999,18.796,101.999z"/>
		<path class="st146" d="M105.789,76.385c0.391,0.539,1.001,0.824,1.619,0.824c0.407,0,0.819-0.124,1.174-0.383l7.289-5.3
			c0.894-0.65,1.092-1.9,0.441-2.794c-0.648-0.893-1.901-1.093-2.793-0.441l-7.289,5.3
			C105.337,74.242,105.139,75.492,105.789,76.385z"/>
		<path class="st146" d="M82.299,59.311c0.205,0.066,0.413,0.098,0.617,0.098c0.844,0,1.628-0.538,1.902-1.383l2.779-8.57
			c0.341-1.051-0.234-2.179-1.285-2.52c-1.055-0.34-2.179,0.235-2.52,1.285l-2.779,8.57C80.673,57.843,81.248,58.971,82.299,59.311z
			"/>
		<path class="st146" d="M50.733,58.026c0.274,0.846,1.059,1.383,1.902,1.383c0.204,0,0.412-0.032,0.617-0.098
			c1.051-0.341,1.626-1.469,1.285-2.52l-2.78-8.57c-0.341-1.05-1.465-1.625-2.52-1.285c-1.051,0.341-1.626,1.469-1.285,2.52
			L50.733,58.026z"/>
		<path class="st146" d="M19.68,71.527l7.29,5.3c0.354,0.259,0.767,0.383,1.174,0.383c0.618,0,1.229-0.285,1.619-0.824
			c0.65-0.893,0.452-2.144-0.441-2.793l-7.29-5.3c-0.892-0.65-2.145-0.451-2.793,0.441C18.588,69.626,18.786,70.877,19.68,71.527z"
			/>
		<path class="st146" d="M116.796,101.999c-1.104,0-2,0.896-2,2s0.896,2,2,2h9.979c1.104,0,2-0.896,2-2s-0.896-2-2-2H116.796z"/>
	</g>
</g>
</svg>
